<?xml version="1.0" encoding="utf-8"?>
<!-- Generator: Adobe Illustrator 24.3.0, SVG Export Plug-In . SVG Version: 6.00 Build 0)  -->
<svg version="1.1" id="Capa_1" xmlns="http://www.w3.org/2000/svg" xmlns:xlink="http://www.w3.org/1999/xlink" x="0px" y="0px"
	 viewBox="0 0 368.11 300" style="enable-background:new 0 0 368.11 300;" xml:space="preserve">
<style type="text/css">
	.st0{fill:#9FBE39;}
	.st1{fill:#69A742;}
</style>
<g>
	<g>
		<circle class="st0" cx="197.36" cy="154.77" r="24.19"/>
	</g>
	<path class="st1" d="M288.83,198.21c0-12.25-9.96-22.21-22.21-22.21c-7.39,0-14.28,3.66-18.42,9.8l-2.32,3.44l-0.13-0.08
		c-10.85,14.77-27.95,23.49-46.41,23.49c-31.75,0-57.58-25.83-57.58-57.58s25.83-57.58,57.58-57.58c2.45,0,4.92,0.16,7.33,0.46
		l3.31,0.42c0.29,0.01,0.57,0.02,0.86,0.02c12.45,0,22.58-10.13,22.58-22.58c0-10.71-7.43-20.02-17.68-22.16
		c-5.38-0.87-10.9-1.31-16.4-1.31c-56.48,0-102.42,45.95-102.42,102.42s45.95,102.42,102.42,102.42c33.27,0,64.13-15.96,83.38-42.92
		l-0.09-0.06l2.44-3.62C287.52,206.93,288.83,202.65,288.83,198.21z"/>
</g>
</svg>
