<?xml version="1.0" encoding="utf-8"?>
<!-- Generator: Adobe Illustrator 24.1.0, SVG Export Plug-In . SVG Version: 6.00 Build 0)  -->
<svg version="1.1" id="Capa_1" xmlns="http://www.w3.org/2000/svg" xmlns:xlink="http://www.w3.org/1999/xlink" x="0px" y="0px"
	 viewBox="0 0 369 220" style="enable-background:new 0 0 369 220;" xml:space="preserve">
<style type="text/css">
	.st0{fill:#69A742;}
	.st1{fill:#9FBE39;}
	.st2{fill:none;stroke:#9FBE39;stroke-width:2.0064;stroke-miterlimit:10;}
	.st3{fill:none;}
</style>
<g>
	<g>
		<path class="st0" d="M278.2,84.1c0.6,0,1.2-0.1,1.7-0.3c0.5-0.2,1-0.6,1.6-1.1c0,0,0-0.1,0-0.1l-1-1c0,0,0,0,0,0l0,0c0,0,0,0,0,0
			c-0.4,0.4-0.8,0.7-1.1,0.8c-0.3,0.2-0.7,0.2-1.1,0.2c-0.5,0-0.9-0.1-1.3-0.3c-0.4-0.2-0.7-0.5-0.9-0.9c-0.2-0.4-0.3-0.8-0.3-1.3
			c0-0.7,0.2-1.3,0.7-1.8c0.5-0.5,1.1-0.7,1.8-0.7c0.8,0,1.6,0.4,2.3,1.1c0,0,0,0,0,0c0,0,0,0,0,0l1-1c0,0,0-0.1,0-0.1
			c-0.4-0.5-0.9-0.9-1.5-1.1c-0.6-0.3-1.2-0.4-1.8-0.4c-0.7,0-1.4,0.2-2.1,0.5s-1.1,0.8-1.5,1.4c-0.3,0.6-0.5,1.3-0.5,2
			c0,1.2,0.4,2.2,1.1,2.9C276.1,83.7,277,84.1,278.2,84.1z"/>
		<path class="st0" d="M287.9,83.6c0.5-0.3,0.8-0.6,1.1-1.1c0.3-0.5,0.4-1,0.4-1.5s-0.1-1-0.4-1.5c-0.3-0.5-0.6-0.8-1.1-1.1
			c-0.5-0.3-1-0.4-1.5-0.4c-0.7,0-1.4,0.3-2,0.8c-0.7,0.6-1,1.3-1,2.2c0,0.8,0.3,1.5,0.9,2.1c0.6,0.6,1.3,0.9,2.1,0.9
			C286.9,84,287.4,83.9,287.9,83.6z M287.4,82.2c-0.3,0.3-0.6,0.4-1.1,0.4s-0.8-0.1-1.1-0.4c-0.3-0.3-0.4-0.7-0.4-1.1
			c0-0.5,0.1-0.8,0.4-1.1c0.3-0.3,0.6-0.4,1.1-0.4c0.4,0,0.8,0.1,1.1,0.4c0.3,0.3,0.4,0.7,0.4,1.1S287.7,81.9,287.4,82.2z"/>
		<path class="st0" d="M292.6,83.9C292.6,83.9,292.6,83.9,292.6,83.9l0.1-2.3l0-0.3c0-0.8,0.1-1.3,0.2-1.5c0.1-0.2,0.3-0.4,0.5-0.4
			c0.1,0,0.2,0,0.4,0.1c0,0,0,0,0,0c0,0,0,0,0,0l0.4-1.2c0,0,0-0.1,0-0.1c-0.5-0.2-1-0.2-1.3,0.1c-0.2,0.1-0.3,0.3-0.4,0.5v-0.5
			c0,0,0-0.1-0.1-0.1h-1.2c0,0-0.1,0-0.1,0.1v5.6c0,0,0,0.1,0.1,0.1C291.2,83.9,292.6,83.9,292.6,83.9z"/>
		<path class="st0" d="M297.3,85.9C297.4,85.9,297.4,85.9,297.3,85.9l0.1-2.6c0.2,0.2,0.5,0.4,0.8,0.5c0.3,0.1,0.6,0.2,0.9,0.2
			c0.7,0,1.4-0.3,1.9-0.9c0.5-0.6,0.8-1.3,0.8-2.1c0-0.9-0.3-1.6-0.8-2.2c-0.5-0.6-1.2-0.8-1.9-0.8c-0.3,0-0.7,0.1-1,0.2
			c-0.3,0.1-0.5,0.3-0.7,0.5v-0.5c0,0,0-0.1-0.1-0.1h-1.4c0,0-0.1,0-0.1,0.1v7.6c0,0,0,0.1,0.1,0.1H297.3z M297.3,81
			c0-0.5,0.1-0.9,0.4-1.1c0.3-0.3,0.6-0.4,1.1-0.4c0.4,0,0.8,0.1,1.1,0.4c0.3,0.3,0.4,0.7,0.4,1.1c0,0.5-0.1,0.9-0.4,1.2
			c-0.3,0.3-0.6,0.5-1,0.5c-0.4,0-0.8-0.1-1.1-0.4C297.5,81.9,297.3,81.5,297.3,81z"/>
		<path class="st0" d="M308.1,78.4c-0.5-0.3-1-0.4-1.5-0.4c-0.7,0-1.4,0.3-2,0.8c-0.7,0.6-1,1.3-1,2.2c0,0.8,0.3,1.5,0.9,2.1
			c0.6,0.6,1.3,0.9,2.1,0.9c0.6,0,1.1-0.1,1.5-0.4c0.5-0.3,0.8-0.6,1.1-1.1c0.3-0.5,0.4-1,0.4-1.5c0-0.5-0.1-1-0.4-1.5
			C308.9,79.1,308.6,78.7,308.1,78.4z M308.1,81c0,0.5-0.1,0.8-0.4,1.1s-0.6,0.4-1.1,0.4c-0.4,0-0.8-0.1-1.1-0.4
			c-0.3-0.3-0.4-0.7-0.4-1.1c0-0.5,0.1-0.8,0.4-1.1c0.3-0.3,0.6-0.4,1.1-0.4c0.4,0,0.8,0.1,1.1,0.4C307.9,80.2,308.1,80.6,308.1,81z
			"/>
		<path class="st0" d="M312.8,83.9C312.8,83.9,312.9,83.9,312.8,83.9l0.1-2.3l0-0.3c0-0.8,0.1-1.3,0.2-1.5c0.1-0.2,0.3-0.4,0.5-0.4
			c0.1,0,0.2,0,0.4,0.1c0,0,0,0,0,0c0,0,0,0,0,0l0.4-1.2c0,0,0-0.1,0-0.1c-0.5-0.2-1-0.2-1.3,0.1c-0.2,0.1-0.3,0.3-0.4,0.5v-0.5
			c0,0,0-0.1-0.1-0.1h-1.2c0,0-0.1,0-0.1,0.1v5.6c0,0,0,0.1,0.1,0.1L312.8,83.9L312.8,83.9z"/>
		<path class="st0" d="M318.6,84c0.3,0,0.6-0.1,0.9-0.2c0.2-0.1,0.5-0.3,0.7-0.5v0.5c0,0,0,0.1,0.1,0.1h1.4c0,0,0.1,0,0.1-0.1v-5.6
			c0,0,0-0.1-0.1-0.1h-1.4c0,0-0.1,0-0.1,0.1v0.5c-0.2-0.2-0.5-0.4-0.7-0.5c-0.3-0.1-0.6-0.2-1-0.2c-0.7,0-1.4,0.3-1.9,0.8
			c-0.5,0.6-0.8,1.3-0.8,2.2c0,0.8,0.3,1.6,0.8,2.1S317.9,84,318.6,84z M317.4,81c0-0.5,0.1-0.8,0.4-1.1c0.3-0.3,0.6-0.4,1-0.4
			c0.4,0,0.8,0.1,1.1,0.4s0.4,0.7,0.4,1.1c0,0.5-0.1,0.9-0.4,1.2s-0.6,0.4-1.1,0.4c-0.4,0-0.8-0.2-1-0.5
			C317.5,81.9,317.4,81.5,317.4,81z"/>
		<path class="st0" d="M327.1,84c1.1,0,2-0.4,2.6-1.2c0,0,0,0,0,0c0,0,0,0,0,0l-1.1-0.8c0,0-0.1,0-0.1,0c-0.3,0.4-0.8,0.6-1.4,0.6
			c-0.5,0-0.9-0.1-1.2-0.4c-0.3-0.3-0.4-0.7-0.4-1.1c0-0.5,0.2-0.9,0.5-1.2c0.3-0.3,0.7-0.5,1.2-0.5c0.3,0,0.5,0,0.7,0.1
			c0.2,0.1,0.4,0.2,0.6,0.5c0,0,0,0,0.1,0l1.2-0.6c0,0,0,0,0,0c0,0,0,0,0,0c-0.3-0.4-0.7-0.7-1.1-1c-0.4-0.2-1-0.3-1.5-0.3
			c-0.6,0-1.2,0.1-1.7,0.4c-0.5,0.3-0.9,0.6-1.2,1.1c-0.3,0.5-0.4,1-0.4,1.5c0,0.8,0.3,1.5,0.9,2.1C325.3,83.7,326.1,84,327.1,84z"
			/>
		<path class="st0" d="M331.8,78.2v5.6c0,0,0,0.1,0.1,0.1h1.4c0,0,0.1,0,0.1-0.1v-5.6c0,0,0-0.1-0.1-0.1L331.8,78.2
			C331.8,78.2,331.8,78.2,331.8,78.2z"/>
		<path class="st0" d="M332.5,77.8c0.3,0,0.5-0.1,0.7-0.3c0.2-0.2,0.3-0.4,0.3-0.7c0-0.3-0.1-0.5-0.3-0.7c-0.2-0.2-0.4-0.3-0.7-0.3
			c-0.3,0-0.5,0.1-0.7,0.3c-0.2,0.2-0.3,0.4-0.3,0.7c0,0.3,0.1,0.5,0.3,0.7C332.1,77.7,332.3,77.8,332.5,77.8z"/>
		<path class="st0" d="M338.2,84c0.6,0,1.1-0.1,1.5-0.4c0.5-0.3,0.8-0.6,1.1-1.1c0.3-0.5,0.4-1,0.4-1.5s-0.1-1-0.4-1.5
			c-0.3-0.5-0.6-0.8-1.1-1.1c-0.5-0.3-1-0.4-1.5-0.4c-0.7,0-1.4,0.3-2,0.8c-0.7,0.6-1,1.3-1,2.2c0,0.8,0.3,1.5,0.9,2.1
			C336.7,83.7,337.4,84,338.2,84z M336.8,81c0-0.5,0.1-0.8,0.4-1.1c0.3-0.3,0.6-0.4,1.1-0.4c0.4,0,0.8,0.1,1.1,0.4
			c0.3,0.3,0.4,0.7,0.4,1.1s-0.1,0.8-0.4,1.1c-0.3,0.3-0.6,0.4-1.1,0.4s-0.8-0.1-1.1-0.4C336.9,81.9,336.8,81.5,336.8,81z"/>
		<path class="st0" d="M338.2,77.3C338.3,77.3,338.3,77.3,338.2,77.3l1.9-2c0,0,0,0,0-0.1c0,0,0,0-0.1,0h-1.7c0,0,0,0,0,0l-1.2,2
			c0,0,0,0,0,0.1c0,0,0,0,0,0C337.2,77.3,338.2,77.3,338.2,77.3z"/>
		<path class="st0" d="M344.8,83.9C344.8,83.9,344.8,83.9,344.8,83.9l0.1-2.3c0-0.6,0-1,0.1-1.1c0.1-0.3,0.2-0.6,0.4-0.8
			c0.2-0.2,0.4-0.3,0.7-0.3c0.2,0,0.4,0.1,0.5,0.2c0.1,0.1,0.2,0.3,0.3,0.5c0.1,0.2,0.1,0.7,0.1,1.3v2.5c0,0,0,0.1,0.1,0.1h1.4
			c0,0,0.1,0,0.1-0.1v-3.7c0-0.7-0.2-1.2-0.5-1.5c-0.4-0.4-0.9-0.6-1.5-0.6c-0.3,0-0.6,0.1-0.8,0.2c-0.2,0.1-0.5,0.3-0.8,0.5v-0.5
			c0,0,0-0.1-0.1-0.1h-1.4c0,0-0.1,0-0.1,0.1v5.6c0,0,0,0.1,0.1,0.1C343.4,83.9,344.8,83.9,344.8,83.9z"/>
		<path class="st0" d="M281.6,89.3h-1.4c0,0,0,0-0.1,0l-1.7,5.1l-1.7-5.1c0,0,0,0-0.1,0h-1.4c0,0-0.1,0-0.1,0l-1.3,7.6c0,0,0,0,0,0
			c0,0,0,0,0,0h1.4c0,0,0.1,0,0.1,0l0.8-4.6l1.5,4.6c0,0,0,0,0.1,0h1.3c0,0,0,0,0.1,0l1.5-4.6l0.8,4.6c0,0,0,0,0.1,0h1.4
			c0,0,0,0,0,0c0,0,0,0,0,0L281.6,89.3C281.7,89.3,281.7,89.3,281.6,89.3z"/>
		<path class="st0" d="M288.5,91.3C288.5,91.3,288.4,91.3,288.5,91.3l-0.1,2.8c0,0.5,0,0.9-0.1,1c-0.1,0.2-0.2,0.4-0.3,0.5
			c-0.2,0.1-0.3,0.2-0.6,0.2c-0.2,0-0.4-0.1-0.6-0.2c-0.2-0.1-0.3-0.3-0.3-0.4c-0.1-0.2-0.1-0.6-0.1-1.1v-2.7c0,0,0-0.1-0.1-0.1H285
			c0,0-0.1,0-0.1,0.1v2.3c0,0.9,0.1,1.5,0.2,1.9c0.2,0.5,0.4,0.9,0.8,1.2c0.4,0.3,0.9,0.4,1.5,0.4c0.6,0,1.1-0.1,1.4-0.4
			c0.4-0.2,0.7-0.6,0.9-1c0.2-0.4,0.2-1.1,0.2-2v-2.4c0,0,0-0.1-0.1-0.1L288.5,91.3L288.5,91.3z"/>
		<path class="st0" d="M295.9,96.9C295.9,97,295.9,97,295.9,96.9l1.4,0.1c0,0,0.1,0,0.1-0.1v-3.7c0-0.7-0.2-1.2-0.5-1.5
			c-0.4-0.4-0.9-0.6-1.5-0.6c-0.3,0-0.6,0.1-0.8,0.2c-0.2,0.1-0.5,0.3-0.8,0.5v-0.5c0,0,0-0.1-0.1-0.1h-1.4c0,0-0.1,0-0.1,0.1v5.6
			c0,0,0,0.1,0.1,0.1h1.4c0,0,0.1,0,0.1-0.1v-2.2c0-0.6,0-1,0.1-1.1c0.1-0.3,0.2-0.6,0.4-0.8c0.2-0.2,0.4-0.3,0.7-0.3
			c0.2,0,0.4,0.1,0.5,0.2c0.1,0.1,0.2,0.3,0.3,0.5c0.1,0.2,0.1,0.7,0.1,1.3L295.9,96.9L295.9,96.9z"/>
		<path class="st0" d="M303.8,96.9C303.8,97,303.8,97,303.8,96.9l1.5,0.1c0,0,0.1,0,0.1-0.1v-7.8c0,0,0-0.1-0.1-0.1h-1.4
			c0,0-0.1,0-0.1,0.1v2.7c-0.2-0.2-0.5-0.4-0.7-0.5c-0.3-0.1-0.6-0.2-1-0.2c-0.7,0-1.4,0.3-1.9,0.8c-0.5,0.6-0.8,1.3-0.8,2.2
			c0,0.8,0.3,1.6,0.8,2.1c0.5,0.6,1.2,0.9,1.9,0.9c0.3,0,0.6-0.1,0.9-0.2c0.2-0.1,0.5-0.3,0.7-0.5L303.8,96.9L303.8,96.9z
			 M303.9,94.1c0,0.5-0.1,0.9-0.4,1.2c-0.3,0.3-0.6,0.4-1.1,0.4c-0.4,0-0.8-0.2-1-0.5c-0.3-0.3-0.4-0.7-0.4-1.2
			c0-0.5,0.1-0.8,0.4-1.1c0.3-0.3,0.6-0.4,1-0.4c0.4,0,0.8,0.1,1.1,0.4C303.7,93.3,303.9,93.6,303.9,94.1z"/>
		<path class="st0" d="M307.6,91.3C307.6,91.3,307.5,91.3,307.6,91.3l-0.1,5.7c0,0,0,0.1,0.1,0.1h1.4c0,0,0.1,0,0.1-0.1v-5.6
			c0,0,0-0.1-0.1-0.1C309,91.3,307.6,91.3,307.6,91.3z"/>
		<path class="st0" d="M308.3,89c-0.3,0-0.5,0.1-0.7,0.3c-0.2,0.2-0.3,0.4-0.3,0.7c0,0.3,0.1,0.5,0.3,0.7c0.2,0.2,0.4,0.3,0.7,0.3
			c0.3,0,0.5-0.1,0.7-0.3c0.2-0.2,0.3-0.4,0.3-0.7s-0.1-0.5-0.3-0.7C308.8,89.1,308.6,89,308.3,89z"/>
		<path class="st0" d="M314.7,97c0.2-0.1,0.5-0.3,0.7-0.5v0.5c0,0,0,0.1,0.1,0.1h1.4c0,0,0.1,0,0.1-0.1v-5.6c0,0,0-0.1-0.1-0.1h-1.4
			c0,0-0.1,0-0.1,0.1v0.5c-0.2-0.2-0.5-0.4-0.7-0.5c-0.3-0.1-0.6-0.2-1-0.2c-0.7,0-1.4,0.3-1.9,0.8c-0.5,0.6-0.8,1.3-0.8,2.2
			c0,0.8,0.3,1.6,0.8,2.1c0.5,0.6,1.2,0.9,1.9,0.9C314.1,97.1,314.4,97.1,314.7,97z M312.5,94.1c0-0.5,0.1-0.8,0.4-1.1
			c0.3-0.3,0.6-0.4,1-0.4c0.4,0,0.8,0.1,1.1,0.4c0.3,0.3,0.4,0.7,0.4,1.1c0,0.5-0.1,0.9-0.4,1.2c-0.3,0.3-0.6,0.4-1.1,0.4
			c-0.4,0-0.8-0.2-1-0.5C312.7,95,312.5,94.6,312.5,94.1z"/>
		<path class="st0" d="M319.2,89.1C319.2,89.1,319.1,89.1,319.2,89.1l-0.1,7.8c0,0,0,0.1,0.1,0.1h1.4c0,0,0.1,0,0.1-0.1v-7.8
			c0,0,0-0.1-0.1-0.1H319.2z"/>
		<path class="st0" d="M331.1,89.1C331,89.1,331,89.1,331.1,89.1l-0.1,2.7c-0.2-0.2-0.5-0.4-0.7-0.5c-0.3-0.1-0.6-0.2-1-0.2
			c-0.7,0-1.4,0.3-1.9,0.8c-0.5,0.6-0.8,1.3-0.8,2.2c0,0.8,0.3,1.6,0.8,2.1c0.5,0.6,1.2,0.9,1.9,0.9c0.3,0,0.6-0.1,0.9-0.2
			c0.2-0.1,0.5-0.3,0.7-0.5v0.5c0,0,0,0.1,0.1,0.1h1.4c0,0,0.1,0,0.1-0.1v-7.8c0,0,0-0.1-0.1-0.1H331.1z M331.1,94.1
			c0,0.5-0.1,0.9-0.4,1.2c-0.3,0.3-0.6,0.4-1.1,0.4c-0.4,0-0.8-0.2-1-0.5c-0.3-0.3-0.4-0.7-0.4-1.2c0-0.5,0.1-0.8,0.4-1.1
			c0.3-0.3,0.6-0.4,1-0.4c0.4,0,0.8,0.1,1.1,0.4C330.9,93.3,331.1,93.6,331.1,94.1z"/>
		<path class="st0" d="M337.6,91.1c-0.8,0-1.5,0.3-2.1,0.9c-0.6,0.6-0.8,1.3-0.8,2.2c0,0.8,0.3,1.6,0.8,2.1c0.6,0.6,1.3,0.8,2.2,0.8
			c0.6,0,1.1-0.1,1.5-0.3c0.4-0.2,0.8-0.5,1.1-0.9c0,0,0,0,0,0c0,0,0,0,0,0l-1.2-0.6c0,0,0,0-0.1,0c-0.4,0.4-0.8,0.5-1.3,0.5
			c-0.4,0-0.8-0.1-1.1-0.3c-0.3-0.2-0.4-0.5-0.5-0.9h4.5c0,0,0.1,0,0.1-0.1l0-0.3c0-0.9-0.3-1.7-0.8-2.3S338.5,91.1,337.6,91.1z
			 M336.2,93.4c0.1-0.3,0.3-0.5,0.5-0.6c0.3-0.2,0.6-0.3,1-0.3c0.3,0,0.7,0.1,0.9,0.3c0.2,0.2,0.4,0.4,0.5,0.7H336.2z"/>
		<path class="st0" d="M346.5,89.2v7.8c0,0,0,0.1,0.1,0.1h1.4c0,0,0.1,0,0.1-0.1v-7.8c0,0,0-0.1-0.1-0.1L346.5,89.2
			C346.6,89.1,346.5,89.1,346.5,89.2z"/>
		<path class="st0" d="M353.7,97c0.2-0.1,0.5-0.3,0.7-0.5v0.5c0,0,0,0.1,0.1,0.1h1.4c0,0,0.1,0,0.1-0.1v-5.6c0,0,0-0.1-0.1-0.1h-1.4
			c0,0-0.1,0-0.1,0.1v0.5c-0.2-0.2-0.5-0.4-0.7-0.5c-0.3-0.1-0.6-0.2-1-0.2c-0.7,0-1.4,0.3-1.9,0.8c-0.5,0.6-0.8,1.3-0.8,2.2
			c0,0.8,0.3,1.6,0.8,2.1s1.2,0.9,1.9,0.9C353.1,97.1,353.4,97.1,353.7,97z M351.5,94.1c0-0.5,0.1-0.8,0.4-1.1
			c0.3-0.3,0.6-0.4,1-0.4c0.4,0,0.8,0.1,1.1,0.4c0.3,0.3,0.4,0.7,0.4,1.1c0,0.5-0.1,0.9-0.4,1.2c-0.3,0.3-0.6,0.4-1.1,0.4
			c-0.4,0-0.8-0.2-1-0.5C351.7,95,351.5,94.6,351.5,94.1z"/>
		<path class="st0" d="M281.6,102.4h-1.4c0,0,0,0-0.1,0l-1.7,5.1l-1.7-5.1c0,0,0,0-0.1,0h-1.4c0,0-0.1,0-0.1,0L274,110c0,0,0,0,0,0
			c0,0,0,0,0,0h1.4c0,0,0.1,0,0.1,0l0.8-4.6l1.5,4.6c0,0,0,0,0.1,0h1.3c0,0,0,0,0.1,0l1.5-4.6l0.8,4.6c0,0,0,0,0.1,0h1.4
			c0,0,0,0,0,0c0,0,0,0,0,0L281.6,102.4C281.7,102.4,281.7,102.4,281.6,102.4z"/>
		<path class="st0" d="M288.5,104.4C288.5,104.4,288.4,104.4,288.5,104.4l-0.1,2.8c0,0.5,0,0.9-0.1,1c-0.1,0.2-0.2,0.4-0.3,0.5
			c-0.2,0.1-0.3,0.2-0.6,0.2s-0.4-0.1-0.6-0.2c-0.2-0.1-0.3-0.3-0.3-0.4c-0.1-0.2-0.1-0.6-0.1-1.1v-2.7c0,0,0-0.1-0.1-0.1H285
			c0,0-0.1,0-0.1,0.1v2.3c0,0.9,0.1,1.5,0.2,1.9c0.2,0.5,0.4,0.9,0.8,1.2c0.4,0.3,0.9,0.4,1.5,0.4c0.6,0,1.1-0.1,1.4-0.4
			c0.4-0.2,0.7-0.6,0.9-1c0.2-0.4,0.2-1.1,0.2-2v-2.4c0,0,0-0.1-0.1-0.1L288.5,104.4L288.5,104.4z"/>
		<path class="st0" d="M293,102.1c-0.3,0-0.5,0.1-0.7,0.3c-0.2,0.2-0.3,0.4-0.3,0.7c0,0.3,0.1,0.5,0.3,0.7c0.2,0.2,0.4,0.3,0.7,0.3
			c0.3,0,0.5-0.1,0.7-0.3c0.2-0.2,0.3-0.4,0.3-0.7c0-0.3-0.1-0.5-0.3-0.7C293.5,102.2,293.3,102.1,293,102.1z"/>
		<path class="st0" d="M292.3,104.4C292.3,104.4,292.2,104.4,292.3,104.4l-0.1,5.9c0,0.3,0,0.5-0.1,0.6s-0.2,0.1-0.4,0.1
			s-0.3-0.1-0.6-0.2c0,0,0,0-0.1,0c0,0,0,0,0,0v1.1c0,0,0,0,0,0.1c0.4,0.1,0.8,0.2,1.1,0.2c0.3,0,0.6-0.1,0.8-0.2
			c0.2-0.1,0.4-0.4,0.5-0.6c0.1-0.3,0.2-0.7,0.2-1.2v-5.8c0,0,0-0.1-0.1-0.1L292.3,104.4L292.3,104.4z"/>
		<path class="st0" d="M298.8,104.2c-0.8,0-1.5,0.3-2.1,0.9c-0.6,0.6-0.8,1.3-0.8,2.2c0,0.8,0.3,1.6,0.8,2.1s1.3,0.8,2.2,0.8
			c0.6,0,1.1-0.1,1.5-0.3c0.4-0.2,0.8-0.5,1.1-0.9c0,0,0,0,0,0c0,0,0,0,0,0l-1.2-0.6c0,0,0,0-0.1,0c-0.4,0.4-0.8,0.5-1.3,0.5
			c-0.4,0-0.8-0.1-1.1-0.3c-0.3-0.2-0.4-0.5-0.5-0.9h4.5c0,0,0.1,0,0.1-0.1l0-0.3c0-0.9-0.3-1.7-0.8-2.3
			C300.4,104.5,299.7,104.2,298.8,104.2z M297.4,106.5c0.1-0.3,0.3-0.5,0.5-0.6c0.3-0.2,0.6-0.3,1-0.3c0.3,0,0.7,0.1,0.9,0.3
			c0.2,0.2,0.4,0.4,0.5,0.7L297.4,106.5L297.4,106.5z"/>
		<path class="st0" d="M306.1,104.2c-0.3,0-0.5,0.1-0.7,0.2c-0.2,0.1-0.3,0.3-0.4,0.5v-0.5c0,0,0-0.1-0.1-0.1h-1.2
			c0,0-0.1,0-0.1,0.1v5.6c0,0,0,0.1,0.1,0.1h1.4c0,0,0.1,0,0.1-0.1v-2.3l0-0.3c0-0.8,0.1-1.3,0.2-1.5c0.1-0.2,0.3-0.4,0.5-0.4
			c0.1,0,0.2,0,0.4,0.1c0,0,0,0,0,0c0,0,0,0,0,0l0.4-1.2c0,0,0-0.1,0-0.1C306.4,104.3,306.2,104.2,306.1,104.2z"/>
		<path class="st0" d="M318,102.6c-0.6-0.3-1.2-0.4-1.8-0.4c-0.7,0-1.4,0.2-2.1,0.5c-0.6,0.4-1.1,0.8-1.5,1.4
			c-0.3,0.6-0.5,1.3-0.5,2c0,1.2,0.4,2.2,1.1,2.9c0.8,0.8,1.7,1.1,2.9,1.1c0.6,0,1.2-0.1,1.7-0.3c0.5-0.2,1-0.6,1.6-1.1
			c0,0,0-0.1,0-0.1l-1-1c0,0,0,0,0,0l0,0c0,0,0,0,0,0c-0.4,0.4-0.8,0.7-1.1,0.8c-0.3,0.2-0.7,0.2-1.1,0.2c-0.5,0-0.9-0.1-1.3-0.3
			c-0.4-0.2-0.7-0.5-0.9-0.9c-0.2-0.4-0.3-0.8-0.3-1.3c0-0.7,0.2-1.3,0.7-1.8c0.5-0.5,1.1-0.7,1.8-0.7c0.8,0,1.6,0.4,2.3,1.1
			c0,0,0,0,0,0c0,0,0,0,0,0l1-1c0,0,0-0.1,0-0.1C319.1,103.3,318.6,102.9,318,102.6z"/>
		<path class="st0" d="M325.8,104.6c-0.5-0.3-1-0.4-1.5-0.4c-0.7,0-1.4,0.3-2,0.8c-0.7,0.6-1,1.3-1,2.2c0,0.8,0.3,1.5,0.9,2.1
			c0.6,0.6,1.3,0.9,2.1,0.9c0.6,0,1.1-0.1,1.5-0.4c0.5-0.3,0.8-0.6,1.1-1.1c0.3-0.5,0.4-1,0.4-1.5c0-0.5-0.1-1-0.4-1.5
			C326.6,105.3,326.3,104.9,325.8,104.6z M325.8,107.2c0,0.5-0.1,0.8-0.4,1.1c-0.3,0.3-0.6,0.4-1.1,0.4c-0.4,0-0.8-0.1-1.1-0.4
			c-0.3-0.3-0.4-0.7-0.4-1.1c0-0.5,0.1-0.8,0.4-1.1c0.3-0.3,0.6-0.4,1.1-0.4c0.4,0,0.8,0.1,1.1,0.4
			C325.6,106.4,325.8,106.8,325.8,107.2z"/>
		<path class="st0" d="M329.3,102.2C329.3,102.2,329.2,102.2,329.3,102.2l-0.1,7.8c0,0,0,0.1,0.1,0.1h1.4c0,0,0.1,0,0.1-0.1v-7.8
			c0,0,0-0.1-0.1-0.1H329.3z"/>
		<path class="st0" d="M337.2,104.6c-0.5-0.3-1-0.4-1.5-0.4c-0.7,0-1.4,0.3-2,0.8c-0.7,0.6-1,1.3-1,2.2c0,0.8,0.3,1.5,0.9,2.1
			s1.3,0.9,2.1,0.9c0.6,0,1.1-0.1,1.5-0.4c0.5-0.3,0.8-0.6,1.1-1.1c0.3-0.5,0.4-1,0.4-1.5c0-0.5-0.1-1-0.4-1.5
			C338,105.3,337.7,104.9,337.2,104.6z M337.2,107.2c0,0.5-0.1,0.8-0.4,1.1c-0.3,0.3-0.6,0.4-1.1,0.4s-0.8-0.1-1.1-0.4
			c-0.3-0.3-0.4-0.7-0.4-1.1c0-0.5,0.1-0.8,0.4-1.1c0.3-0.3,0.6-0.4,1.1-0.4c0.4,0,0.8,0.1,1.1,0.4
			C337,106.4,337.2,106.8,337.2,107.2z"/>
		<path class="st0" d="M348.6,104.5c-0.3-0.2-0.7-0.3-1.1-0.3c-0.4,0-0.8,0.1-1.1,0.3c-0.3,0.2-0.6,0.4-0.8,0.7
			c-0.2-0.3-0.4-0.5-0.7-0.7c-0.3-0.2-0.6-0.3-1-0.3c-0.4,0-0.7,0.1-1,0.2c-0.3,0.1-0.5,0.3-0.7,0.5v-0.5c0,0,0-0.1-0.1-0.1h-1.4
			c0,0-0.1,0-0.1,0.1v5.6c0,0,0,0.1,0.1,0.1h1.4c0,0,0.1,0,0.1-0.1v-2.5c0-0.5,0-0.9,0.1-1.2c0.1-0.2,0.2-0.4,0.4-0.6
			c0.2-0.1,0.4-0.2,0.6-0.2c0.2,0,0.4,0.1,0.5,0.2c0.1,0.1,0.2,0.3,0.3,0.5c0.1,0.2,0.1,0.6,0.1,1.1v2.7c0,0,0,0.1,0.1,0.1h1.4
			c0,0,0.1,0,0.1-0.1v-2.5c0-0.5,0-0.9,0.1-1.1c0.1-0.2,0.2-0.4,0.4-0.5c0.2-0.1,0.4-0.2,0.6-0.2c0.3,0,0.5,0.1,0.7,0.3
			c0.1,0.2,0.2,0.6,0.2,1.3v2.8c0,0,0,0.1,0.1,0.1h1.4c0,0,0.1,0,0.1-0.1v-3.3c0-0.7-0.1-1.2-0.2-1.5
			C349.1,105,348.9,104.7,348.6,104.5z"/>
		<path class="st0" d="M355,104.2c-0.3,0-0.7,0.1-1,0.2c-0.3,0.1-0.5,0.3-0.7,0.5v-2.7c0,0,0-0.1-0.1-0.1h-1.4c0,0-0.1,0-0.1,0.1
			v7.8c0,0,0,0.1,0.1,0.1h1.4c0,0,0.1,0,0.1-0.1v-0.5c0.2,0.2,0.5,0.4,0.8,0.5c0.3,0.1,0.6,0.2,0.9,0.2c0.7,0,1.4-0.3,1.9-0.9
			c0.5-0.6,0.8-1.3,0.8-2.1c0-0.9-0.3-1.6-0.8-2.2C356.4,104.5,355.7,104.2,355,104.2z M356.1,107.2c0,0.5-0.1,0.9-0.4,1.2
			c-0.3,0.3-0.6,0.5-1,0.5c-0.4,0-0.8-0.1-1.1-0.4c-0.3-0.3-0.4-0.7-0.4-1.2c0-0.5,0.1-0.9,0.4-1.1c0.3-0.3,0.6-0.4,1.1-0.4
			c0.4,0,0.8,0.1,1.1,0.4C356,106.4,356.1,106.8,356.1,107.2z"/>
		<path class="st0" d="M359.7,104.4C359.6,104.4,359.6,104.4,359.7,104.4l-0.1,5.7c0,0,0,0.1,0.1,0.1h1.4c0,0,0.1,0,0.1-0.1v-5.6
			c0,0,0-0.1-0.1-0.1H359.7z"/>
		<path class="st0" d="M360.4,102.1c-0.3,0-0.5,0.1-0.7,0.3c-0.2,0.2-0.3,0.4-0.3,0.7c0,0.3,0.1,0.5,0.3,0.7
			c0.2,0.2,0.4,0.3,0.7,0.3c0.3,0,0.5-0.1,0.7-0.3c0.2-0.2,0.3-0.4,0.3-0.7c0-0.3-0.1-0.5-0.3-0.7
			C360.9,102.2,360.6,102.1,360.4,102.1z"/>
		<path class="st0" d="M368.9,104.4h-1.4c0,0-0.1,0-0.1,0.1v0.5c-0.2-0.2-0.5-0.4-0.7-0.5c-0.3-0.1-0.6-0.2-1-0.2
			c-0.7,0-1.4,0.3-1.9,0.8c-0.5,0.6-0.8,1.3-0.8,2.2c0,0.8,0.3,1.6,0.8,2.1c0.5,0.6,1.2,0.9,1.9,0.9c0.3,0,0.6-0.1,0.9-0.2
			c0.2-0.1,0.5-0.3,0.7-0.5v0.5c0,0,0,0.1,0.1,0.1h1.4c0,0,0.1,0,0.1-0.1L368.9,104.4C369,104.4,369,104.4,368.9,104.4z
			 M367.5,107.2c0,0.5-0.1,0.9-0.4,1.2c-0.3,0.3-0.6,0.4-1.1,0.4c-0.4,0-0.8-0.2-1-0.5s-0.4-0.7-0.4-1.2c0-0.5,0.1-0.9,0.4-1.1
			c0.3-0.3,0.6-0.4,1-0.4c0.4,0,0.8,0.1,1.1,0.4C367.4,106.4,367.5,106.8,367.5,107.2z"/>
	</g>
	<rect x="265.6" y="75" class="st0" width="3.2" height="37.6"/>
	<g>
		<path class="st1" d="M129.1,139.2"/>
	</g>
	<g>
		<path class="st1" d="M138.3,145.1"/>
	</g>
	<g>
		<path class="st1" d="M147.6,139.2"/>
	</g>
	<g>
		<path class="st1" d="M147.8,101.8"/>
	</g>
	<g>
		<path class="st1" d="M147.8,139.2"/>
	</g>
	<path class="st1" d="M203.6,111L203.6,111L203.6,111z"/>
	<path class="st1" d="M213.8,83.6c-5-5.4-12-8.5-19.5-8.5c-6.5,0-12.8,2.4-17.6,6.7l-1,0.9l-1-0.9c-4.9-4.3-11.1-6.7-17.6-6.7
		c-14.6,0-26.5,11.9-26.5,26.5v37.6c0,4.3,3.5,7.7,7.8,7.7c4.3,0,7.8-3.5,7.8-7.7l0-37.5c0-6,4.9-10.9,10.9-10.9
		c6,0,10.8,4.8,10.9,10.8l0,0v0.1l0,37.4c0,4.3,3.5,7.7,7.8,7.7c4.3,0,7.8-3.5,7.8-7.7l0-37.4c0-5.9,4.8-10.7,10.7-10.7
		c4.8,0,8.8,3.1,10.2,7.4C206.5,92.7,209.7,87.7,213.8,83.6z"/>
	<g>
		<circle class="st0" cx="35.1" cy="110.8" r="8.5"/>
	</g>
	<g>
		<circle class="st1" cx="241.5" cy="110.8" r="8.5"/>
	</g>
	<g>
		<path class="st1" d="M129.1,139.2"/>
	</g>
	<g>
		<path class="st1" d="M138.3,145.1"/>
	</g>
	<g>
		<path class="st1" d="M147.6,139.2"/>
	</g>
	<g>
		<path class="st1" d="M147.8,101.8"/>
	</g>
	<g>
		<path class="st1" d="M147.8,139.2"/>
	</g>
	<g>
		<path class="st1" d="M128.9,101.6L128.9,101.6L128.9,101.6z"/>
	</g>
	<g>
		<path class="st1" d="M129.1,139.2"/>
	</g>
	<g>
		<path class="st1" d="M138.3,145.1"/>
	</g>
	<g>
		<path class="st1" d="M147.6,139.2"/>
	</g>
	<g>
		<path class="st1" d="M147.8,101.8"/>
	</g>
	<g>
		<path class="st1" d="M147.8,139.2"/>
	</g>
	<g>
		<path class="st1" d="M129.1,139.2"/>
	</g>
	<g>
		<path class="st1" d="M138.3,145.1"/>
	</g>
	<g>
		<path class="st1" d="M147.6,139.2"/>
	</g>
	<g>
		<path class="st1" d="M147.8,101.8"/>
	</g>
	<g>
		<path class="st1" d="M147.8,139.2"/>
	</g>
	<g>
		<path class="st1" d="M129.1,139.2"/>
	</g>
	<g>
		<path class="st1" d="M138.3,145.1"/>
	</g>
	<g>
		<path class="st1" d="M147.6,139.2"/>
	</g>
	<g>
		<path class="st1" d="M147.8,101.8"/>
	</g>
	<g>
		<path class="st1" d="M147.8,139.2"/>
	</g>
	<path class="st1" d="M67.1,126c0-4.3-3.5-7.8-7.8-7.8c-2.6,0-5,1.3-6.4,3.4l-0.8,1.2l0,0c-3.8,5.2-9.8,8.2-16.2,8.2
		c-11.1,0-20.1-9-20.1-20.1s9-20.1,20.1-20.1c0.9,0,1.7,0.1,2.6,0.2l1.2,0.1c0.1,0,0.2,0,0.3,0c4.4,0,7.9-3.5,7.9-7.9
		c0-3.7-2.6-7-6.2-7.7c-1.9-0.3-3.8-0.5-5.7-0.5C16.1,75,0,91.1,0,110.8s16.1,35.8,35.8,35.8c11.6,0,22.4-5.6,29.1-15l0,0l0.9-1.3
		C66.6,129.1,67.1,127.6,67.1,126z"/>
	<path class="st0" d="M136.2,80.8c-4.7-3.7-10.5-5.8-16.5-5.8c-6.5,0-12.8,2.4-17.6,6.7l-1,0.9l-1-0.9C95.2,77.4,89,75,82.4,75
		C67.8,75,56,86.9,56,101.5l0,9.5c0,1.7-0.2,3.4-0.6,5c1.3-0.5,2.6-0.8,4-0.8c4.8,0,8.9,3.2,10.3,7.5c1.3-3.7,2-7.7,2-11.9v-9.3
		c0-6,4.9-10.9,10.9-10.9s10.9,4.9,10.9,10.9L93.3,139c0,4.3,3.5,7.7,7.7,7.7c4.3,0,7.7-3.5,7.7-7.7v-37.4l0-0.2
		c0.1-5.9,4.9-10.6,10.8-10.6c3.6,0,6.7,1.7,8.7,4.4C129.5,89.6,132.3,84.7,136.2,80.8z"/>
	<path class="st0" d="M272.5,126.2c0-4.3-3.5-7.7-7.8-7.7c-2.5,0-4.7,1.1-6.2,3.1c-3.6,6-10.2,9.7-17.2,9.7
		c-11.1,0-20.1-9-20.1-20.1s9-20.1,20.1-20.1c1,0,2,0.1,3,0.2l0.5,0.1c0.2,0,0.3,0,0.5,0c4.4,0,7.9-3.5,7.9-7.9
		c0-3.8-2.7-7.1-6.4-7.8l-0.6-0.1c-1.6-0.2-3.2-0.3-4.8-0.3c-19.7,0-35.8,16.1-35.8,35.8s16.1,35.8,35.8,35.8
		c11.9,0,23-5.9,29.6-15.7l0-0.1l0.3-0.5C272.1,129.2,272.5,127.7,272.5,126.2z"/>
	<path class="st2" d="M0,142"/>
</g>
<rect class="st3" width="369" height="220"/>
</svg>
