<?xml version="1.0" encoding="utf-8"?>
<!-- Generator: Adobe Illustrator 24.3.0, SVG Export Plug-In . SVG Version: 6.00 Build 0)  -->
<svg version="1.1" id="Capa_1" xmlns="http://www.w3.org/2000/svg" xmlns:xlink="http://www.w3.org/1999/xlink" x="0px" y="0px"
	 viewBox="0 0 368.11 300" style="enable-background:new 0 0 368.11 300;" xml:space="preserve">
<style type="text/css">
	.st0{fill:#9FBE37;}
	.st1{fill:#FFFFFF;}
	.st2{fill:#69A642;}
</style>
<g>
	<path class="st0" d="M284.17,200.43c0-12.7-10.5-23.03-23.4-23.03c-7.38,0-14.17,3.32-18.64,9.11
		c-10.86,17.8-30.49,28.84-51.33,28.84c-33.12,0-60.07-26.95-60.07-60.07S157.67,95.2,190.8,95.2c2.98,0,5.98,0.22,8.91,0.66
		l1.59,0.24c0.5,0.03,1,0.05,1.51,0.05c12.99,0,23.56-10.57,23.56-23.56c0-11.33-8.07-21.07-19.18-23.15l-1.91-0.36
		c-4.77-0.65-9.63-0.97-14.47-0.97c-58.92,0-106.86,47.94-106.86,106.86s47.94,106.86,106.86,106.86
		c35.55,0,68.49-17.49,88.45-46.88l-0.03-0.24l0.97-1.42C282.79,209.48,284.17,205.03,284.17,200.43z"/>
	<path class="st1" d="M190.8,263.95c-60.1,0-109-48.9-109-109s48.9-109,109-109c4.93,0,9.9,0.33,14.76,0.99l2.01,0.38
		c12.12,2.27,20.92,12.89,20.92,25.25c0,14.16-11.53,25.69-25.69,25.69c-0.54,0-1.09-0.02-1.64-0.05l-0.18-0.02l-1.59-0.24
		c-2.83-0.42-5.72-0.63-8.6-0.63c-31.95,0-57.94,25.99-57.94,57.94s25.99,57.94,57.94,57.94c20.07,0,39.04-10.66,49.5-27.82
		l0.13-0.19c4.88-6.32,12.29-9.94,20.33-9.94c14.08,0,25.54,11.29,25.54,25.17c0,5.04-1.5,9.9-4.35,14.06l-0.51,0.74l0.03,0.24
		l-0.46,0.68C260.68,246.08,226.96,263.95,190.8,263.95z M190.8,50.23c-57.75,0-104.73,46.98-104.73,104.73
		s46.98,104.73,104.73,104.73c34.47,0,66.64-16.91,86.22-45.27l-0.03-0.24l1.44-2.11c2.36-3.44,3.6-7.47,3.6-11.64
		c0-11.52-9.54-20.9-21.27-20.9c-6.67,0-12.82,2.98-16.88,8.19c-11.25,18.36-31.58,29.76-53.09,29.76
		c-34.3,0-62.21-27.91-62.21-62.21s27.91-62.21,62.21-62.21c3.08,0,6.19,0.23,9.22,0.68l1.5,0.22c12.31,0.74,22.7-9.15,22.7-21.38
		c0-10.3-7.33-19.16-17.44-21.05l-1.91-0.36C200.31,50.55,195.54,50.23,190.8,50.23z"/>
</g>
<g>
	<g>
		<path class="st2" d="M284.17,200.43c0-12.7-10.5-23.03-23.4-23.03c-7.38,0-14.17,3.32-18.64,9.11
			c-10.86,17.8-30.49,28.84-51.33,28.84c-11.46,0-23.54-3.63-33.18-10.05c-2.85-1.94-6.14-3.28-9.7-3.81
			c-1.11-0.16-2.25-0.28-3.41-0.28c-12.86,0-23.29,10.43-23.29,23.29c0,1.75,0.2,3.45,0.56,5.09c0.63,2.8,1.76,5.4,3.29,7.72
			c0.73,0.97,1.48,1.92,2.25,2.86c1.03,1.13,2.18,2.16,3.42,3.07c0.33,0.22,0.66,0.44,0.99,0.67
			c16.93,11.29,37.23,17.91,59.06,17.91c35.55,0,68.49-17.49,88.45-46.88l-0.03-0.24l0.97-1.42
			C282.79,209.48,284.17,205.03,284.17,200.43z M159.96,207.13c-0.11-0.1-0.23-0.2-0.34-0.29
			C159.73,206.93,159.84,207.03,159.96,207.13z"/>
		<path class="st1" d="M190.8,263.95c-21.49,0-42.32-6.31-60.25-18.26c-0.34-0.22-0.67-0.45-1.01-0.68
			c-1.43-1.05-2.68-2.18-3.79-3.4c-0.86-1.05-1.63-2.02-2.37-3.01c-1.79-2.7-2.99-5.53-3.67-8.54c-0.41-1.82-0.62-3.7-0.62-5.56
			c0-14.02,11.41-25.42,25.42-25.42c1.13,0,2.32,0.1,3.72,0.3c3.82,0.56,7.38,1.96,10.59,4.15c9.23,6.14,20.89,9.67,31.98,9.67
			c20.07,0,39.04-10.66,49.5-27.82l0.13-0.19c4.88-6.31,12.29-9.94,20.33-9.94c14.08,0,25.54,11.29,25.54,25.17
			c0,5.04-1.5,9.9-4.35,14.06l-0.51,0.74l0.03,0.24l-0.46,0.68C260.68,246.08,226.96,263.95,190.8,263.95z M144.51,203.35
			c-11.66,0-21.16,9.49-21.16,21.16c0,1.55,0.17,3.11,0.51,4.63c0.56,2.5,1.57,4.86,2.99,7.01c0.64,0.84,1.38,1.77,2.12,2.69
			c0.84,0.92,1.89,1.86,3.03,2.7c0.26,0.17,0.58,0.39,0.9,0.6c17.23,11.48,37.24,17.55,57.88,17.55c34.47,0,66.64-16.91,86.22-45.27
			l-0.03-0.24l1.44-2.11c2.36-3.44,3.6-7.47,3.6-11.64c0-11.52-9.54-20.9-21.27-20.9c-6.67,0-12.82,2.98-16.88,8.19
			c-11.25,18.36-31.58,29.76-53.09,29.76c-11.01,0-22.55-3.24-32.07-8.96l-0.18,0.21l-0.32-0.28l0.13-0.15
			c-0.65-0.4-1.28-0.8-1.91-1.22c-2.69-1.84-5.66-3-8.83-3.47C146.42,203.43,145.44,203.35,144.51,203.35z"/>
	</g>
</g>
<g>
	<path class="st1" d="M147.07,219.98l2.03,1.43c1.09,0.77,1.81,1.43,2.15,1.97c0.34,0.54,0.49,1.14,0.45,1.79
		c-0.04,0.65-0.28,1.29-0.73,1.92c-0.49,0.7-1.08,1.16-1.78,1.36c-0.69,0.21-1.42,0.18-2.17-0.08c-0.44-0.15-1.15-0.57-2.12-1.26
		l-2.99,4.25l-1.91-1.34L147.07,219.98z M146.22,225.24l0.61,0.43c0.48,0.34,0.83,0.54,1.07,0.6c0.24,0.06,0.46,0.05,0.68-0.03
		c0.22-0.08,0.41-0.23,0.56-0.46c0.27-0.39,0.32-0.78,0.15-1.16c-0.12-0.29-0.48-0.64-1.07-1.05l-0.54-0.38L146.22,225.24z"/>
	<path class="st1" d="M157.41,226.67l2.22,1.09c1.22,0.59,2.03,1.13,2.44,1.59c0.41,0.47,0.65,1.04,0.72,1.69
		c0.07,0.66-0.07,1.33-0.4,2.02c-0.35,0.72-0.82,1.24-1.41,1.56c-0.58,0.32-1.29,0.43-2.11,0.34l0.22,6.17l-2.29-1.12l-0.2-5.88
		l-0.19-0.09l-2.28,4.67l-2.1-1.03L157.41,226.67z M157.4,232l0.66,0.32c0.67,0.33,1.17,0.46,1.51,0.41
		c0.34-0.05,0.61-0.28,0.8-0.69c0.12-0.24,0.16-0.48,0.12-0.72c-0.04-0.24-0.14-0.45-0.31-0.63s-0.54-0.41-1.09-0.68l-0.57-0.28
		L157.4,232z"/>
	<path class="st1" d="M174.24,232.88c1.68,0.44,2.97,1.42,3.86,2.94c0.89,1.53,1.12,3.17,0.67,4.92c-0.45,1.73-1.42,3.04-2.93,3.94
		c-1.5,0.89-3.1,1.12-4.81,0.68c-1.78-0.46-3.1-1.46-3.97-3c-0.86-1.54-1.07-3.16-0.63-4.85c0.29-1.14,0.84-2.11,1.63-2.92
		c0.8-0.81,1.75-1.37,2.85-1.68C172.02,232.6,173.13,232.59,174.24,232.88z M173.64,235.09c-1.1-0.29-2.12-0.14-3.07,0.43
		c-0.95,0.57-1.57,1.45-1.88,2.62c-0.34,1.32-0.13,2.47,0.61,3.48c0.58,0.78,1.34,1.3,2.29,1.55c1.07,0.28,2.09,0.13,3.04-0.45
		c0.95-0.58,1.58-1.44,1.87-2.58c0.29-1.13,0.16-2.19-0.4-3.16S174.73,235.37,173.64,235.09z"/>
	<path class="st1" d="M184.92,235.26l2.76,0.11c1.78,0.07,3.1,0.35,3.94,0.83c0.85,0.48,1.53,1.22,2.05,2.24
		c0.52,1.02,0.75,2.19,0.7,3.52c-0.04,0.94-0.23,1.81-0.58,2.58c-0.35,0.78-0.81,1.42-1.38,1.92c-0.57,0.5-1.19,0.84-1.84,1.01
		c-0.65,0.17-1.77,0.23-3.36,0.16l-2.8-0.12L184.92,235.26z M187.14,237.6l-0.32,7.73l1.08,0.05c1.07,0.04,1.84-0.05,2.34-0.27
		c0.49-0.23,0.9-0.62,1.23-1.19c0.33-0.56,0.51-1.27,0.55-2.12c0.05-1.3-0.27-2.33-0.97-3.07c-0.63-0.67-1.67-1.04-3.12-1.1
		L187.14,237.6z"/>
	<path class="st1" d="M199.27,235.31l2.32-0.35l1.17,7.84c0.1,0.68,0.23,1.15,0.39,1.41c0.16,0.26,0.39,0.46,0.69,0.58
		c0.3,0.13,0.64,0.16,1.02,0.1c0.41-0.06,0.74-0.21,1.01-0.44c0.27-0.23,0.44-0.5,0.5-0.8c0.07-0.31,0.04-0.86-0.08-1.68l-1.12-7.56
		l2.32-0.35l1.08,7.23c0.18,1.22,0.24,2.08,0.17,2.57c-0.07,0.49-0.26,0.99-0.58,1.49c-0.32,0.5-0.72,0.89-1.19,1.18
		c-0.48,0.29-1.05,0.48-1.72,0.58c-0.88,0.13-1.67,0.04-2.39-0.27c-0.71-0.31-1.25-0.74-1.62-1.31c-0.37-0.56-0.66-1.57-0.88-3.02
		L199.27,235.31z"/>
	<path class="st1" d="M223.9,231.15l-1.01,2.01c-1.44-0.73-2.81-0.86-4.12-0.39c-1.1,0.39-1.9,1.1-2.38,2.13
		c-0.49,1.02-0.53,2.09-0.13,3.2c0.28,0.77,0.69,1.39,1.24,1.87c0.55,0.48,1.19,0.78,1.92,0.9c0.73,0.12,1.47,0.05,2.22-0.22
		c0.64-0.23,1.18-0.56,1.62-0.98c0.44-0.43,0.87-1.07,1.28-1.93l2.05,1.02c-0.55,1.14-1.15,2.01-1.8,2.6s-1.45,1.06-2.43,1.41
		c-1.8,0.64-3.47,0.6-5.02-0.13c-1.55-0.73-2.64-1.98-3.28-3.76c-0.41-1.15-0.52-2.27-0.32-3.35c0.2-1.08,0.69-2.07,1.46-2.96
		c0.77-0.89,1.72-1.54,2.84-1.94c0.95-0.34,1.94-0.47,2.97-0.38C222.03,230.34,222.99,230.64,223.9,231.15z"/>
	<path class="st1" d="M226.18,227.49l5.9-3.34l1.14,2l-1.94,1.1l4.91,8.67l-2.06,1.17l-4.92-8.67l-1.89,1.08L226.18,227.49z"/>
	<path class="st1" d="M235.59,221.71l1.87-1.38l7.28,9.87l-1.87,1.38L235.59,221.71z"/>
	<path class="st1" d="M241.02,217.71l1.7-1.7l8.34,3.98l-3.95-8.37l1.69-1.69l5.55,11.8l-1.59,1.59L241.02,217.71z"/>
	<path class="st1" d="M254.4,201.58c0.94-1.46,2.28-2.37,4.01-2.74c1.73-0.37,3.36-0.06,4.88,0.92c1.5,0.97,2.44,2.31,2.81,4.02
		c0.37,1.71,0.08,3.3-0.87,4.78c-1,1.54-2.36,2.48-4.1,2.82c-1.73,0.33-3.33,0.02-4.8-0.93c-0.98-0.64-1.74-1.46-2.25-2.47
		c-0.52-1.01-0.75-2.09-0.69-3.24C253.44,203.6,253.78,202.54,254.4,201.58z M256.3,202.84c-0.61,0.96-0.8,1.97-0.56,3.05
		c0.24,1.08,0.87,1.95,1.9,2.61c1.14,0.74,2.3,0.91,3.49,0.52c0.93-0.3,1.66-0.86,2.19-1.69c0.6-0.93,0.78-1.94,0.53-3.03
		c-0.25-1.09-0.87-1.95-1.85-2.59c-0.98-0.63-2.02-0.84-3.13-0.62C257.77,201.32,256.91,201.9,256.3,202.84z"/>
</g>
<g>
	<path class="st2" d="M155.17,164.43c-0.67-0.47-1.14-1.34-1.14-2.29c0-1.58,1.26-2.8,2.84-2.8c0.79,0,1.34,0.28,1.74,0.55
		c2.09,1.54,4.38,2.48,7.06,2.48c2.49,0,3.98-0.99,3.98-2.6v-0.08c0-1.54-0.95-2.33-5.56-3.51c-5.56-1.42-9.15-2.96-9.15-8.44v-0.08
		c0-5.01,4.02-8.32,9.67-8.32c3.35,0,6.27,0.87,8.76,2.45c0.67,0.39,1.34,1.22,1.34,2.41c0,1.58-1.26,2.8-2.84,2.8
		c-0.59,0-1.06-0.16-1.54-0.43c-2.01-1.18-3.91-1.85-5.8-1.85c-2.33,0-3.55,1.07-3.55,2.41v0.08c0,1.81,1.18,2.41,5.96,3.63
		c5.6,1.46,8.76,3.47,8.76,8.28v0.08c0,5.48-4.18,8.56-10.14,8.56C161.91,167.75,158.24,166.64,155.17,164.43z"/>
	<path class="st2" d="M184.91,164.32v-21.54c0-1.7,1.34-3.04,3.04-3.04h15.31c1.5,0,2.72,1.22,2.72,2.72s-1.22,2.68-2.72,2.68
		h-12.31v5.6h10.53c1.5,0,2.72,1.22,2.72,2.72s-1.22,2.68-2.72,2.68h-10.53v5.8h12.51c1.5,0,2.72,1.22,2.72,2.72
		s-1.22,2.68-2.72,2.68h-15.5C186.25,167.35,184.91,166.01,184.91,164.32z"/>
	<path class="st2" d="M213.74,163.45l9.63-21.74c0.67-1.5,1.89-2.41,3.55-2.41h0.36c1.66,0,2.84,0.91,3.51,2.41l9.63,21.74
		c0.2,0.43,0.32,0.83,0.32,1.22c0,1.62-1.26,2.92-2.88,2.92c-1.42,0-2.37-0.83-2.92-2.09l-1.85-4.34h-12.15l-1.93,4.54
		c-0.51,1.18-1.54,1.89-2.8,1.89c-1.58,0-2.8-1.26-2.8-2.84C213.38,164.32,213.54,163.88,213.74,163.45z M230.82,155.8l-3.83-9.11
		l-3.83,9.11H230.82z"/>
</g>
<g>
	<path class="st1" d="M147.07,219.98l2.03,1.43c1.09,0.77,1.81,1.43,2.15,1.97c0.34,0.54,0.49,1.14,0.45,1.79
		c-0.04,0.65-0.28,1.29-0.73,1.92c-0.49,0.7-1.08,1.15-1.78,1.36c-0.69,0.21-1.42,0.18-2.17-0.08c-0.44-0.15-1.15-0.57-2.12-1.26
		l-2.99,4.25l-1.91-1.34L147.07,219.98z M146.22,225.24l0.61,0.43c0.48,0.34,0.83,0.54,1.07,0.6c0.24,0.06,0.46,0.05,0.68-0.03
		c0.22-0.08,0.41-0.24,0.56-0.46c0.27-0.39,0.32-0.78,0.15-1.16c-0.12-0.29-0.48-0.64-1.07-1.05l-0.54-0.38L146.22,225.24z"/>
	<path class="st1" d="M157.41,226.67l2.22,1.09c1.22,0.59,2.03,1.13,2.44,1.59c0.41,0.47,0.65,1.03,0.72,1.69
		c0.07,0.66-0.07,1.33-0.4,2.02c-0.35,0.72-0.82,1.25-1.41,1.56c-0.58,0.32-1.29,0.43-2.11,0.34l0.22,6.17l-2.29-1.12l-0.2-5.88
		l-0.19-0.09l-2.28,4.67l-2.1-1.03L157.41,226.67z M157.4,232l0.66,0.32c0.67,0.33,1.17,0.46,1.51,0.41
		c0.34-0.05,0.61-0.28,0.8-0.69c0.12-0.24,0.16-0.48,0.12-0.72c-0.04-0.24-0.14-0.45-0.31-0.63c-0.17-0.18-0.54-0.41-1.09-0.68
		l-0.57-0.28L157.4,232z"/>
	<path class="st1" d="M174.24,232.88c1.68,0.44,2.97,1.42,3.86,2.94c0.89,1.53,1.12,3.17,0.67,4.92c-0.45,1.73-1.42,3.05-2.93,3.94
		c-1.5,0.89-3.1,1.12-4.81,0.68c-1.78-0.46-3.1-1.46-3.97-3c-0.86-1.54-1.07-3.15-0.63-4.85c0.29-1.14,0.84-2.11,1.63-2.92
		c0.8-0.81,1.75-1.37,2.85-1.68C172.02,232.6,173.13,232.59,174.24,232.88z M173.64,235.09c-1.1-0.28-2.12-0.14-3.07,0.43
		c-0.95,0.57-1.57,1.45-1.88,2.62c-0.34,1.31-0.13,2.47,0.61,3.48c0.58,0.79,1.34,1.3,2.29,1.55c1.07,0.28,2.09,0.13,3.04-0.46
		c0.95-0.58,1.58-1.44,1.87-2.57c0.29-1.13,0.16-2.19-0.4-3.16S174.73,235.37,173.64,235.09z"/>
	<path class="st1" d="M184.92,235.26l2.76,0.11c1.78,0.07,3.1,0.35,3.94,0.83c0.85,0.48,1.53,1.22,2.05,2.24
		c0.52,1.02,0.75,2.19,0.7,3.52c-0.04,0.94-0.23,1.81-0.58,2.58c-0.35,0.78-0.81,1.42-1.38,1.92c-0.57,0.5-1.19,0.84-1.84,1.01
		c-0.65,0.17-1.77,0.23-3.36,0.16l-2.8-0.12L184.92,235.26z M187.14,237.6l-0.32,7.73l1.08,0.05c1.07,0.04,1.84-0.05,2.34-0.27
		c0.49-0.23,0.9-0.62,1.23-1.19c0.33-0.57,0.51-1.27,0.55-2.12c0.05-1.3-0.27-2.33-0.97-3.07c-0.63-0.67-1.67-1.04-3.12-1.1
		L187.14,237.6z"/>
	<path class="st1" d="M199.27,235.31l2.32-0.35l1.17,7.84c0.1,0.68,0.23,1.15,0.39,1.41c0.16,0.26,0.39,0.46,0.69,0.58
		c0.3,0.13,0.64,0.16,1.02,0.1c0.41-0.06,0.74-0.21,1.01-0.44c0.27-0.23,0.44-0.5,0.5-0.8c0.07-0.31,0.04-0.86-0.08-1.68l-1.12-7.56
		l2.32-0.35l1.08,7.23c0.18,1.22,0.24,2.08,0.17,2.57c-0.07,0.49-0.26,0.99-0.58,1.49c-0.32,0.5-0.72,0.89-1.19,1.18
		c-0.48,0.29-1.05,0.48-1.72,0.58c-0.88,0.13-1.67,0.04-2.39-0.27c-0.71-0.31-1.25-0.74-1.62-1.31c-0.37-0.56-0.66-1.57-0.88-3.02
		L199.27,235.31z"/>
	<path class="st1" d="M223.9,231.15l-1.01,2.02c-1.44-0.73-2.81-0.86-4.12-0.39c-1.1,0.39-1.9,1.1-2.38,2.13
		c-0.49,1.03-0.53,2.09-0.13,3.2c0.28,0.77,0.69,1.39,1.24,1.87c0.55,0.48,1.19,0.78,1.92,0.9c0.73,0.12,1.47,0.05,2.22-0.22
		c0.64-0.23,1.18-0.56,1.62-0.98c0.44-0.43,0.87-1.07,1.28-1.92l2.05,1.02c-0.55,1.14-1.15,2-1.8,2.6s-1.45,1.06-2.43,1.41
		c-1.8,0.64-3.47,0.6-5.02-0.13c-1.55-0.73-2.64-1.98-3.28-3.76c-0.41-1.15-0.52-2.27-0.32-3.35c0.2-1.08,0.69-2.07,1.46-2.96
		c0.77-0.89,1.72-1.54,2.84-1.94c0.95-0.34,1.94-0.47,2.97-0.38C222.03,230.34,222.99,230.64,223.9,231.15z"/>
	<path class="st1" d="M226.18,227.5l5.9-3.35l1.14,2l-1.94,1.1l4.91,8.67l-2.06,1.17l-4.92-8.67l-1.89,1.07L226.18,227.5z"/>
	<path class="st1" d="M235.59,221.71l1.87-1.38l7.28,9.87l-1.87,1.38L235.59,221.71z"/>
	<path class="st1" d="M241.02,217.71l1.7-1.7l8.34,3.98l-3.95-8.37l1.69-1.69l5.55,11.8l-1.59,1.59L241.02,217.71z"/>
	<path class="st1" d="M254.4,201.58c0.94-1.46,2.28-2.37,4.01-2.74c1.73-0.37,3.36-0.06,4.88,0.92c1.5,0.97,2.44,2.31,2.81,4.02
		c0.37,1.71,0.08,3.3-0.87,4.78c-1,1.54-2.36,2.48-4.1,2.82c-1.73,0.33-3.33,0.02-4.8-0.93c-0.98-0.64-1.74-1.46-2.25-2.47
		c-0.52-1.01-0.75-2.09-0.69-3.24C253.44,203.6,253.78,202.54,254.4,201.58z M256.3,202.84c-0.61,0.96-0.8,1.97-0.56,3.05
		c0.24,1.08,0.87,1.95,1.9,2.61c1.14,0.74,2.3,0.91,3.49,0.52c0.93-0.3,1.66-0.86,2.19-1.68c0.6-0.93,0.78-1.94,0.53-3.03
		c-0.25-1.09-0.87-1.95-1.85-2.59c-0.98-0.63-2.02-0.84-3.13-0.62C257.77,201.32,256.91,201.9,256.3,202.84z"/>
</g>
<g>
	<path class="st2" d="M155.17,164.43c-0.67-0.47-1.14-1.34-1.14-2.29c0-1.58,1.26-2.8,2.84-2.8c0.79,0,1.34,0.28,1.74,0.55
		c2.09,1.54,4.38,2.48,7.06,2.48c2.49,0,3.98-0.99,3.98-2.6v-0.08c0-1.54-0.95-2.33-5.56-3.51c-5.56-1.42-9.15-2.96-9.15-8.44v-0.08
		c0-5.01,4.02-8.32,9.67-8.32c3.35,0,6.27,0.87,8.76,2.45c0.67,0.39,1.34,1.22,1.34,2.41c0,1.58-1.26,2.8-2.84,2.8
		c-0.59,0-1.06-0.16-1.54-0.43c-2.01-1.18-3.91-1.85-5.8-1.85c-2.33,0-3.55,1.07-3.55,2.41v0.08c0,1.81,1.18,2.41,5.96,3.63
		c5.6,1.46,8.76,3.47,8.76,8.28v0.08c0,5.48-4.18,8.56-10.14,8.56C161.91,167.75,158.24,166.64,155.17,164.43z"/>
	<path class="st2" d="M184.91,164.32v-21.54c0-1.7,1.34-3.04,3.04-3.04h15.31c1.5,0,2.72,1.22,2.72,2.72s-1.22,2.68-2.72,2.68
		h-12.31v5.6h10.53c1.5,0,2.72,1.22,2.72,2.72s-1.22,2.68-2.72,2.68h-10.53v5.8h12.51c1.5,0,2.72,1.22,2.72,2.72
		s-1.22,2.68-2.72,2.68h-15.5C186.25,167.35,184.91,166.01,184.91,164.32z"/>
	<path class="st2" d="M213.74,163.45l9.63-21.74c0.67-1.5,1.89-2.41,3.55-2.41h0.36c1.66,0,2.84,0.91,3.51,2.41l9.63,21.74
		c0.2,0.43,0.32,0.83,0.32,1.22c0,1.62-1.26,2.92-2.88,2.92c-1.42,0-2.37-0.83-2.92-2.09l-1.85-4.34h-12.15l-1.93,4.54
		c-0.51,1.18-1.54,1.89-2.8,1.89c-1.58,0-2.8-1.26-2.8-2.84C213.38,164.32,213.54,163.88,213.74,163.45z M230.82,155.8l-3.83-9.11
		l-3.83,9.11H230.82z"/>
</g>
</svg>
